# xmcd CD database file
#
# Track frame offsets:
#	150
#	31180
#	48917
#
# Disc length: 844 seconds
#
# Revision: 0
# Processed by: cddbd v1.5.1PL2 Copyright (c) Steve Scherf et al.
# Submitted via: CDex 1.51
#
DISCID=19034a03
DTITLE=Walrus - トネリコ
DYEAR=2000
DGENRE=Rock
TTITLE0=トネリコ
TTITLE1=Naked
TTITLE2=Keloid
EXTD=YEAR: 2000
EXTT0=
EXTT1=
EXTT2=
PLAYORDER=
